<?xml version="1.0" standalone="no"?>
<!DOCTYPE svg PUBLIC "-//W3C//DTD SVG 20010904//EN"
 "http://www.w3.org/TR/2001/REC-SVG-20010904/DTD/svg10.dtd">
<svg version="1.0" xmlns="http://www.w3.org/2000/svg"
 width="500.000000pt" height="500.000000pt" viewBox="0 0 500.000000 500.000000"
 preserveAspectRatio="xMidYMid meet">

<g transform="translate(0.000000,500.000000) scale(0.100000,-0.100000)"
fill="#000000" stroke="none">
<path d="M2128 3265 c-24 -14 -78 -104 -78 -132 0 -7 -9 -37 -21 -68 l-20 -55
-167 0 c-183 0 -226 -7 -273 -47 -69 -58 -69 -54 -69 -588 0 -300 4 -494 10
-517 14 -50 55 -97 105 -119 38 -18 87 -19 885 -19 l846 0 44 23 c26 13 57 40
75 65 l30 44 0 506 0 507 -23 40 c-26 45 -72 81 -123 95 -19 6 -106 10 -195
10 l-161 0 -26 58 c-14 31 -28 73 -32 92 -12 57 -34 91 -70 106 -50 21 -698
20 -737 -1z m503 -421 c90 -27 151 -63 220 -133 152 -153 189 -375 94 -567
-86 -175 -253 -276 -453 -275 -266 1 -469 195 -489 466 -20 281 207 524 493
525 46 0 104 -7 135 -16z m679 -24 c11 -11 20 -33 20 -48 0 -86 -116 -94 -136
-10 -4 21 0 33 20 52 30 31 69 33 96 6z"/>
<path d="M2373 2635 c-108 -54 -163 -136 -171 -252 -6 -88 16 -157 69 -217
141 -160 390 -132 494 55 27 48 30 63 30 139 0 98 -21 152 -82 214 -88 87
-234 114 -340 61z"/>
</g>
</svg>
