<?xml version="1.0" standalone="no"?>
<!DOCTYPE svg PUBLIC "-//W3C//DTD SVG 20010904//EN"
 "http://www.w3.org/TR/2001/REC-SVG-20010904/DTD/svg10.dtd">
<svg version="1.0" xmlns="http://www.w3.org/2000/svg"
 width="500.000000pt" height="500.000000pt" viewBox="0 0 500.000000 500.000000"
 preserveAspectRatio="xMidYMid meet">

<g transform="translate(0.000000,500.000000) scale(0.100000,-0.100000)"
fill="#000000" stroke="none">
<path d="M2418 3720 c-83 -25 -135 -86 -124 -145 l7 -33 -58 -12 c-170 -35
-446 -157 -628 -278 -171 -114 -325 -265 -404 -397 -109 -181 -91 -347 47
-424 15 -8 14 -12 -11 -31 -52 -41 -69 -92 -65 -190 3 -76 7 -93 33 -135 45
-71 114 -107 219 -113 l81 -5 33 -68 c97 -201 380 -382 681 -434 46 -8 85 -15
87 -15 2 0 4 -4 4 -8 0 -5 -13 -7 -29 -4 -46 6 -165 -73 -261 -174 -105 -111
-184 -233 -280 -429 -119 -243 -153 -366 -154 -555 -1 -101 2 -122 23 -168 13
-29 37 -64 53 -77 29 -24 33 -25 191 -24 165 1 167 6 11 27 -112 15 -158 40
-190 104 -26 51 -27 56 -21 178 9 184 54 322 177 541 88 157 161 259 252 349
81 80 98 91 98 67 0 -14 110 -178 167 -249 21 -25 74 -91 117 -145 93 -114
282 -302 331 -329 31 -16 45 -38 45 -73 0 -12 -48 -13 -317 -8 -216 5 -334 11
-368 20 l-50 13 0 205 c0 150 -3 210 -13 227 -16 28 -32 24 -54 -14 -17 -30
-24 -160 -20 -366 2 -70 4 -79 31 -104 27 -25 28 -29 15 -59 -15 -37 -39 -323
-30 -360 5 -20 13 -25 36 -25 35 0 35 0 50 150 5 58 16 136 22 174 l13 68 65
-6 c36 -3 116 -6 178 -6 108 0 112 -1 100 -19 -9 -15 -9 -23 1 -35 29 -35 82
-6 61 33 -10 21 -9 21 88 21 55 0 126 3 159 6 l59 6 32 -64 c17 -35 47 -79 67
-96 31 -28 35 -38 35 -80 0 -26 3 -71 6 -99 7 -52 8 -53 39 -53 41 0 47 17 38
128 l-6 82 32 0 c23 0 42 9 62 29 25 25 29 37 29 84 0 35 -5 59 -14 66 -11 9
-12 20 -5 44 21 75 2 185 -39 218 -23 18 -26 27 -28 108 -3 86 -18 140 -45
156 -23 15 -32 -17 -32 -123 l0 -110 -61 -8 -61 -9 -75 59 c-138 108 -221 199
-337 371 -40 60 -95 162 -107 200 -5 19 -2 20 79 16 77 -3 91 0 141 24 40 20
60 36 69 59 7 17 11 34 9 37 -2 3 21 9 51 13 120 14 340 101 455 179 25 17 67
52 94 77 l49 45 -9 -35 c-14 -56 -10 -152 9 -187 10 -18 31 -39 47 -48 29 -15
29 -16 14 -50 -34 -83 -5 -165 66 -186 35 -11 40 -16 35 -33 -4 -12 -9 -46
-12 -77 -5 -50 -2 -60 18 -80 l24 -24 8 65 c11 94 15 100 38 53 19 -39 45 -60
57 -48 3 3 1 28 -4 56 l-11 50 44 -45 c24 -25 48 -46 53 -46 19 0 10 57 -15
90 -14 19 -25 35 -25 37 0 5 49 -22 85 -46 38 -27 45 -26 45 2 0 39 -91 107
-142 107 -25 0 -27 2 -18 26 24 61 -3 142 -53 165 l-23 11 23 45 c29 58 30
123 2 179 -23 48 -72 84 -113 84 -37 0 -46 -29 -15 -49 92 -59 115 -119 76
-204 l-24 -54 -53 1 c-43 1 -56 6 -72 26 -17 21 -20 35 -15 87 2 34 14 80 25
101 11 22 22 50 24 63 2 20 -1 23 -19 21 -21 -3 -20 2 20 77 l42 81 70 0 c110
1 191 46 238 135 31 57 31 194 1 245 l-20 35 28 23 c50 42 61 75 56 177 -3 79
-8 100 -40 167 -51 108 -105 183 -205 288 -248 261 -548 435 -854 495 l-86 17
5 45 c7 60 -12 91 -73 119 -52 25 -132 31 -187 14z m-93 -1240 c8 -27 33 -60
45 -60 4 0 5 68 2 150 l-5 150 29 0 c29 0 30 0 45 -94 19 -106 56 -199 89
-216 32 -17 35 -6 10 44 -22 46 -49 173 -50 234 0 29 3 32 29 32 26 0 29 -4
46 -65 21 -79 75 -194 101 -216 10 -9 30 -20 44 -24 l24 -8 -18 28 c-49 74
-78 147 -100 248 -6 26 -5 27 36 27 52 0 50 1 117 -80 72 -87 110 -121 213
-190 99 -66 171 -102 272 -136 76 -26 150 -32 144 -12 -5 13 -31 24 -133 53
-146 42 -332 163 -419 274 -26 34 -46 65 -42 68 10 10 182 -26 279 -58 102
-35 261 -106 306 -138 16 -12 35 -21 42 -21 27 0 59 -43 59 -80 0 -20 5 -41
11 -47 7 -7 3 -19 -15 -41 -22 -25 -26 -40 -26 -91 0 -92 -26 -207 -66 -289
-101 -209 -378 -378 -689 -421 -89 -13 -105 -22 -105 -62 0 -47 -59 -62 -154
-39 -42 9 -56 23 -56 56 0 33 -20 43 -105 55 -232 32 -460 141 -594 285 -99
106 -147 228 -158 408 -6 98 -6 98 15 87 96 -51 347 67 541 253 45 45 96 100
112 123 24 35 35 42 67 45 l37 3 6 -105 c3 -58 9 -116 14 -130z m-174 202
c-16 -30 -162 -165 -221 -203 -122 -81 -262 -139 -335 -139 -17 0 -40 -6 -51
-14 -13 -10 -25 -11 -35 -5 -12 7 -10 15 9 48 12 22 22 49 22 60 0 63 289 201
523 250 51 11 93 20 95 20 1 1 -2 -7 -7 -17z m-718 -331 c24 -9 27 -16 27 -56
l0 -45 -65 32 c-35 18 -68 29 -71 25 -9 -9 27 -49 91 -100 47 -37 51 -43 61
-106 14 -79 10 -84 -61 -75 -109 13 -175 85 -175 192 0 63 12 95 47 128 24 22
35 25 73 21 25 -2 57 -9 73 -16z m2290 -18 c28 -33 39 -99 26 -161 -19 -95
-95 -152 -202 -152 l-39 0 7 63 c4 34 10 67 14 73 3 6 39 39 79 74 88 75 85
97 -6 51 -34 -17 -64 -31 -67 -31 -11 0 -4 89 8 93 6 3 46 6 88 6 60 1 79 -3
92 -16z m-149 -896 c50 -42 53 -83 11 -127 -30 -32 -70 -39 -106 -20 -22 12
-27 77 -8 113 13 25 50 67 58 67 3 0 24 -15 45 -33z m56 -171 c0 -3 -4 -8 -10
-11 -5 -3 -10 -1 -10 4 0 6 5 11 10 11 6 0 10 -2 10 -4z"/>
<path d="M1940 2323 c-68 -35 -102 -161 -66 -246 33 -78 113 -108 176 -65 47
32 65 71 64 138 -1 132 -87 217 -174 173z"/>
<path d="M2974 2330 c-75 -30 -120 -181 -78 -262 66 -127 218 -88 240 61 13
88 -25 168 -93 197 -37 16 -40 16 -69 4z"/>
<path d="M2634 2019 c-24 -27 -91 -59 -124 -59 -42 0 -98 20 -129 45 -16 14
-36 25 -45 25 -13 0 -14 -5 -5 -27 26 -68 86 -103 177 -103 70 0 116 26 147
82 24 46 10 71 -21 37z"/>
<path d="M1332 1833 c-41 -20 -61 -49 -73 -104 -8 -36 -6 -49 14 -91 l24 -49
-28 -16 c-60 -36 -81 -138 -40 -193 12 -17 21 -33 19 -34 -1 -1 -16 -10 -31
-20 -50 -31 -87 -151 -51 -163 7 -2 20 16 29 41 10 25 25 52 35 61 17 15 18
13 13 -49 -6 -73 3 -83 36 -40 18 23 21 24 21 8 0 -11 4 -25 9 -33 15 -23 40
4 47 50 5 31 9 37 20 28 7 -6 18 -27 25 -47 16 -52 26 -59 40 -29 24 53 -34
155 -89 158 -9 0 4 7 30 15 26 8 63 29 82 48 48 44 50 94 6 155 l-30 41 23 9
c40 16 85 60 92 92 16 72 -26 150 -83 153 -17 1 -37 7 -44 14 -17 17 -56 15
-96 -5z m129 -55 c11 -13 27 -38 35 -56 14 -31 13 -36 -1 -59 -9 -14 -40 -35
-68 -48 -47 -20 -54 -21 -75 -7 -51 34 -63 110 -22 147 14 13 76 38 108 44 2
1 13 -9 23 -21z m-65 -255 c60 -68 61 -105 2 -141 -61 -38 -81 -38 -116 3 -33
36 -35 60 -10 107 6 13 66 49 96 57 2 1 14 -11 28 -26z m-74 -239 c-3 -19 -7
-22 -13 -12 -13 20 -11 38 5 38 9 0 12 -8 8 -26z"/>
<path d="M2762 1371 c-27 -16 11 -52 103 -96 158 -77 248 -161 356 -330 73
-113 107 -155 126 -155 48 0 -39 173 -167 335 -130 163 -347 291 -418 246z"/>
<path d="M3357 753 c-14 -13 -7 -70 13 -108 76 -148 130 -310 137 -410 5 -69
2 -87 -15 -120 -21 -41 -61 -83 -97 -103 -16 -9 -9 -11 42 -12 59 0 63 2 87
33 63 82 71 170 32 332 -65 264 -153 435 -199 388z"/>
<path d="M2511 286 c-7 -8 -10 -23 -7 -34 5 -14 -2 -22 -29 -35 -41 -19 -45
-43 -11 -58 22 -10 25 -20 31 -85 l7 -74 39 0 39 0 0 70 c0 58 3 72 18 76 54
18 72 28 72 41 0 15 -57 43 -87 43 -14 0 -18 8 -18 33 0 25 -5 33 -21 35 -11
2 -26 -4 -33 -12z"/>
</g>
</svg>
