<?xml version="1.0" standalone="no"?>
<!DOCTYPE svg PUBLIC "-//W3C//DTD SVG 20010904//EN"
 "http://www.w3.org/TR/2001/REC-SVG-20010904/DTD/svg10.dtd">
<svg version="1.0" xmlns="http://www.w3.org/2000/svg"
 width="500.000000pt" height="500.000000pt" viewBox="0 0 500.000000 500.000000"
 preserveAspectRatio="xMidYMid meet">

<g transform="translate(0.000000,500.000000) scale(0.100000,-0.100000)"
fill="#000000" stroke="none">
<path d="M2516 3414 c-176 -35 -336 -105 -592 -259 -300 -182 -384 -212 -644
-235 -74 -7 -162 -21 -196 -31 -197 -61 -279 -301 -203 -596 38 -150 95 -248
223 -380 188 -196 373 -296 663 -357 255 -53 508 -58 798 -16 333 49 558 141
739 301 65 57 136 155 136 186 0 39 -24 24 -72 -47 -178 -261 -619 -420 -1165
-420 -558 0 -942 167 -1170 508 -101 151 -139 284 -130 459 6 125 23 184 74
242 59 70 123 92 308 106 249 19 382 67 639 230 220 139 415 227 571 260 103
21 288 22 377 1 247 -57 458 -251 458 -419 0 -24 6 -51 13 -61 12 -16 14 -16
26 -2 18 21 8 106 -21 183 -17 46 -38 75 -102 138 -45 44 -110 97 -146 118
-160 93 -393 129 -584 91z"/>
<path d="M2573 3211 c-143 -23 -251 -71 -508 -224 -203 -122 -203 -122 -187
-138 14 -15 54 4 258 127 245 149 374 194 543 193 58 0 123 -7 164 -18 52 -13
70 -15 77 -6 36 43 -205 88 -347 66z"/>
<path d="M3004 3109 c-3 -6 -2 -15 4 -21 13 -13 32 -2 32 18 0 16 -26 19 -36
3z"/>
<path d="M3865 2953 c-149 -76 -316 -124 -470 -135 -28 -2 -40 -8 -40 -18 0
-35 192 -17 331 30 30 11 54 16 54 13 0 -3 -9 -20 -20 -38 -13 -21 -33 -36
-59 -44 -53 -15 -131 -78 -169 -136 l-31 -46 -16 31 c-9 18 -43 61 -75 95 -71
77 -92 115 -100 180 -3 35 -9 50 -20 50 -24 0 -25 -86 -2 -137 10 -24 46 -73
80 -110 76 -84 95 -120 94 -178 0 -25 -1 -85 -3 -135 -1 -71 3 -103 20 -150
43 -121 143 -239 240 -283 65 -30 80 -24 96 39 15 57 36 98 97 183 79 114 107
240 73 336 -34 97 -175 215 -175 147 0 -7 22 -29 49 -49 64 -48 95 -111 94
-192 -1 -78 -26 -141 -94 -241 -54 -79 -72 -115 -83 -167 -8 -37 -23 -35 -89
12 -72 52 -147 163 -172 253 -45 168 23 362 154 435 22 13 41 20 41 15 0 -4
-11 -40 -24 -79 -33 -97 -47 -205 -37 -279 14 -100 50 -165 67 -121 3 8 -2 38
-10 67 -41 138 4 344 114 516 35 56 47 66 120 103 60 30 80 45 80 60 0 28 -13
25 -115 -27z"/>
<path d="M1490 2735 c-12 -19 -34 -42 -48 -50 -15 -8 -21 -14 -14 -15 7 0 23
5 34 11 20 11 21 9 15 -20 -4 -21 -35 -62 -84 -117 -115 -124 -146 -194 -88
-194 41 0 75 40 132 156 51 104 61 118 116 160 68 51 103 55 124 14 18 -35 16
-109 -4 -191 -9 -38 -13 -72 -10 -76 10 -10 21 5 22 30 1 12 9 57 19 100 11
45 15 92 12 111 -14 75 -85 91 -161 37 -49 -35 -53 -32 -30 22 19 45 19 57 1
57 -8 0 -24 -16 -36 -35z m-58 -202 c-40 -85 -63 -122 -93 -147 -39 -33 -58
-22 -36 20 13 26 133 164 142 164 2 0 -4 -17 -13 -37z"/>
<path d="M1857 2698 c-44 -48 -172 -236 -165 -243 3 -3 26 28 52 69 76 122
166 210 166 165 0 -7 -14 -52 -31 -101 -22 -64 -29 -102 -27 -141 3 -49 5 -52
31 -55 19 -2 40 5 62 22 34 26 34 26 45 6 15 -28 28 -25 23 4 -10 50 116 154
173 143 13 -2 21 0 18 4 -3 5 -22 9 -43 9 -47 0 -116 -43 -162 -99 -18 -23
-49 -51 -67 -63 -34 -21 -35 -21 -49 -2 -18 25 -11 67 32 191 25 72 31 101 24
115 -15 28 -39 21 -82 -24z"/>
<path d="M2384 2517 c-35 -35 -64 -60 -64 -56 0 4 9 29 20 55 11 26 18 49 16
52 -12 12 -35 -10 -41 -39 -5 -20 -27 -51 -57 -81 -88 -85 -109 -56 -53 75 14
34 -21 17 -70 -34 -28 -28 -63 -60 -80 -70 -21 -14 -25 -19 -12 -19 9 0 38 19
64 43 l46 42 -6 -30 c-13 -72 40 -86 104 -28 44 39 45 38 22 -24 -6 -14 6 -17
22 -5 6 4 32 35 59 69 67 86 100 98 71 25 -36 -89 7 -133 74 -77 l31 27 20
-24 c12 -14 18 -17 14 -6 -18 51 110 167 172 155 13 -2 21 0 18 4 -9 16 -64
10 -104 -11 -22 -11 -71 -52 -109 -90 -39 -39 -77 -70 -86 -70 -22 0 -19 55 5
109 42 92 14 95 -76 8z"/>
<path d="M2868 2544 c-72 -79 -140 -146 -144 -141 -3 3 9 33 26 66 26 53 28
62 14 68 -10 4 -33 -11 -67 -44 -29 -27 -65 -59 -81 -71 -18 -14 -23 -22 -13
-22 8 0 41 26 72 58 63 63 62 67 11 -51 -9 -21 -43 -55 -88 -89 -82 -62 -120
-116 -99 -142 37 -45 105 2 161 113 29 55 55 90 100 129 l60 53 0 -28 c0 -29
15 -53 34 -53 6 0 5 5 -2 12 -19 19 -14 51 17 100 30 48 64 74 81 63 6 -3 10
-1 10 4 0 6 -13 11 -30 11 -21 0 -39 -10 -62 -36z m-246 -266 c-52 -90 -112
-133 -112 -80 0 9 10 29 23 44 25 31 109 99 115 93 2 -2 -10 -28 -26 -57z"/>
<path d="M2960 2515 c0 -42 -50 -114 -79 -116 -11 0 -12 -2 -3 -6 7 -3 25 3
40 13 15 10 38 17 51 15 21 -3 81 41 81 60 0 4 -13 -6 -29 -22 -36 -36 -67
-40 -56 -6 14 44 17 87 6 87 -6 0 -11 -11 -11 -25z"/>
<path d="M1470 2045 c0 -41 2 -45 25 -45 30 0 41 21 26 47 -9 15 -10 13 -5 -9
5 -24 3 -28 -15 -28 -17 0 -21 6 -21 36 0 31 3 36 20 31 11 -3 18 -1 14 4 -3
5 -14 9 -25 9 -16 0 -19 -7 -19 -45z"/>
<path d="M1667 2083 c-3 -5 10 -8 28 -8 18 0 31 3 28 8 -2 4 -15 7 -28 7 -13
0 -26 -3 -28 -7z"/>
<path d="M2057 2082 c6 -4 13 -25 16 -47 l4 -40 1 42 c1 23 8 44 15 46 6 3 -1
6 -18 6 -17 0 -25 -3 -18 -7z"/>
<path d="M2398 2083 c7 -3 16 -2 19 1 4 3 -2 6 -13 5 -11 0 -14 -3 -6 -6z"/>
<path d="M2572 2060 c0 -19 2 -27 5 -17 2 9 2 25 0 35 -3 9 -5 1 -5 -18z"/>
<path d="M2633 2055 c0 -22 2 -30 4 -17 2 12 2 30 0 40 -3 9 -5 -1 -4 -23z"/>
<path d="M2783 2083 c9 -2 23 -2 30 0 6 3 -1 5 -18 5 -16 0 -22 -2 -12 -5z"/>
<path d="M1651 2044 c0 -11 3 -14 6 -6 3 7 2 16 -1 19 -3 4 -6 -2 -5 -13z"/>
<path d="M1731 2044 c0 -11 3 -14 6 -6 3 7 2 16 -1 19 -3 4 -6 -2 -5 -13z"/>
<path d="M2361 2044 c0 -11 3 -14 6 -6 3 7 2 16 -1 19 -3 4 -6 -2 -5 -13z"/>
<path d="M2441 2044 c0 -11 3 -14 6 -6 3 7 2 16 -1 19 -3 4 -6 -2 -5 -13z"/>
<path d="M2778 2043 c6 -2 18 -2 25 0 6 3 1 5 -13 5 -14 0 -19 -2 -12 -5z"/>
<path d="M1920 2021 c0 -9 -9 -12 -25 -9 -13 3 -22 1 -19 -3 7 -13 42 -11 49
2 4 6 4 13 1 16 -3 4 -6 1 -6 -6z"/>
<path d="M2410 2010 c-24 -8 -23 -8 8 -9 20 -1 31 3 27 9 -3 6 -7 10 -8 9 -1
-1 -13 -5 -27 -9z"/>
<path d="M2588 2008 c5 -5 16 -8 23 -6 8 3 3 7 -10 11 -17 4 -21 3 -13 -5z"/>
<path d="M1688 2003 c7 -3 16 -2 19 1 4 3 -2 6 -13 5 -11 0 -14 -3 -6 -6z"/>
<path d="M2783 2003 c9 -2 23 -2 30 0 6 3 -1 5 -18 5 -16 0 -22 -2 -12 -5z"/>
</g>
</svg>
